<svg width="33" height="32" viewBox="0 0 33 32" fill="none" xmlns="http://www.w3.org/2000/svg">
<path d="M16.5 32C25.3366 32 32.5 24.8366 32.5 16C32.5 7.16344 25.3366 0 16.5 0C7.66344 0 0.5 7.16344 0.5 16C0.5 24.8366 7.66344 32 16.5 32Z" fill="#ECEFF0"/>
<path d="M16.5002 1.63263L7.73828 16.1632L16.5002 21.3877V1.63263Z" fill="#838485"/>
<path d="M16.5 1.63245L25.2619 16.1631L16.5 21.3875V1.63245Z" fill="#2F3031"/>
<path d="M7.73828 16.1631L16.5002 12.6257V21.3876L7.73828 16.1631Z" fill="#333534"/>
<path d="M16.5 21.3876L25.2619 16.1631L16.5 12.6257" fill="#131313"/>
<path d="M7.73828 17.9045L16.5002 30.4215V23.4556L7.73828 17.9045Z" fill="#828385"/>
<path d="M16.5 30.4215L25.2619 17.9045L16.5 23.4556V30.4215Z" fill="#2F3031"/>
</svg>
