<svg width="33" height="32" viewBox="0 0 33 32" fill="none" xmlns="http://www.w3.org/2000/svg">
<path d="M16.5 32C25.3366 32 32.5 24.8366 32.5 16C32.5 7.16344 25.3366 0 16.5 0C7.66344 0 0.5 7.16344 0.5 16C0.5 24.8366 7.66344 32 16.5 32Z" fill="#8247E5"/>
<g clip-path="url(#clip0_2214_5692)">
<path d="M21.5293 12.5445C21.172 12.3336 20.7123 12.3336 20.3038 12.5445L17.4446 14.2856L15.5045 15.3931L12.6961 17.1354C12.3388 17.3462 11.8791 17.3462 11.4706 17.1354L9.27601 15.7638C9.08937 15.6502 8.93466 15.4883 8.82716 15.294C8.71966 15.0997 8.66309 14.8797 8.66305 14.6559V12.017C8.66305 11.5949 8.8675 11.1729 9.27601 10.9091L11.4706 9.59044C11.8279 9.37922 12.2876 9.37922 12.6961 9.59044L14.8908 10.962C15.0774 11.0756 15.2322 11.2375 15.3397 11.4318C15.4472 11.6261 15.5037 11.8461 15.5037 12.0699V13.8106L17.4438 12.6499V10.8566C17.4438 10.4346 17.2398 10.0125 16.8313 9.74877L12.747 7.27012C12.3897 7.05889 11.9303 7.05889 11.5218 7.27012L7.33473 9.80127C6.92623 10.0125 6.72217 10.4346 6.72217 10.8566V15.8151C6.72217 16.2372 6.92623 16.658 7.33473 16.923L11.4706 19.4028C11.8279 19.614 12.2876 19.614 12.6961 19.4028L15.5045 17.7146L17.4446 16.5542L20.2529 14.866C20.6102 14.6551 21.0699 14.6551 21.4784 14.866L23.6731 16.1851C23.86 16.2987 24.015 16.4609 24.1226 16.6555C24.2302 16.8501 24.2866 17.0704 24.2864 17.2945V19.9319C24.2864 20.3539 24.0823 20.776 23.6738 21.0397L21.5293 22.3588C21.172 22.5696 20.7123 22.5696 20.3038 22.3588L18.1091 21.0397C17.9225 20.9261 17.7679 20.7641 17.6605 20.5699C17.553 20.3756 17.4965 20.1556 17.4966 19.9319V18.242L15.5553 19.4028V21.1436C15.5553 21.5656 15.7597 21.9877 16.1683 22.2514L20.3038 24.7309C20.6614 24.9421 21.1208 24.9421 21.5293 24.7309L25.6652 22.251C25.8517 22.1374 26.0064 21.9754 26.1138 21.7811C26.2213 21.5868 26.2778 21.3669 26.2777 21.1432V16.131C26.2777 15.7089 26.0737 15.2868 25.6652 15.0231L21.5293 12.5445Z" fill="white"/>
</g>
<defs>
<clipPath id="clip0_2214_5692">
<rect width="19.5556" height="17.7778" fill="white" transform="translate(6.72217 7.11108)"/>
</clipPath>
</defs>
</svg>
