<svg width="33" height="32" viewBox="0 0 33 32" fill="none" xmlns="http://www.w3.org/2000/svg">
<path d="M16.5 32C25.3366 32 32.5 24.8366 32.5 16C32.5 7.16344 25.3366 0 16.5 0C7.66344 0 0.5 7.16344 0.5 16C0.5 24.8366 7.66344 32 16.5 32Z" fill="#F7931A"/>
<path d="M16.1712 25.7778L14.4329 25.3552L15.1456 22.5837C14.6296 22.4588 14.1744 22.3436 13.7561 22.2339L13.0336 25.0173L11.2954 24.5947L12.0167 21.7798L11.5691 21.6711C11.3073 21.6048 11.0411 21.5375 10.7739 21.4723L8.5 20.9193L9.36914 18.979C9.37891 18.979 10.5642 19.2875 10.6337 19.2875C10.7025 19.3032 10.7728 19.3116 10.8434 19.3125C10.9743 19.3106 11.1014 19.2686 11.2075 19.192C11.3136 19.1154 11.3936 19.008 11.4366 18.8845L12.5741 14.4421L12.7577 14.4855C12.6998 14.4636 12.6407 14.4451 12.5806 14.4301L13.3889 11.2589C13.4107 11.0208 13.3375 10.7837 13.1853 10.5993C13.0331 10.415 12.8142 10.2982 12.5762 10.2746C12.5686 10.2539 11.7766 10.0725 11.3095 9.9682L11.7734 8.15823L14.1798 8.74164V8.75033C14.5361 8.83616 14.8947 8.91655 15.2934 9.00455L16.0072 6.22223L17.7454 6.64485L17.0512 9.37285L17.2087 9.40761C17.6161 9.49887 18.0366 9.59339 18.4473 9.69225L19.1469 6.98272L20.8917 7.40534L20.1725 10.1877C22.8299 11.0774 23.9424 12.316 23.6697 14.0836C23.6242 14.6857 23.3812 15.256 22.9786 15.7061C22.5759 16.1561 22.0359 16.4607 21.4425 16.5726C21.835 16.7151 22.1925 16.9398 22.4912 17.2316C22.7898 17.5234 23.0227 17.8756 23.1743 18.2647C23.3259 18.6538 23.3927 19.0707 23.3702 19.4877C23.3477 19.9046 23.2365 20.312 23.0439 20.6825C22.792 21.4875 22.2682 22.1799 21.5621 22.6413C20.8559 23.1027 20.0114 23.3043 19.173 23.2117C18.4067 23.1992 17.6432 23.1177 16.8915 22.9683L16.1712 25.7778ZM15.2727 16.4639L14.3145 20.1936L14.6404 20.2772C15.5821 20.5511 16.5529 20.7123 17.5325 20.7574C18.7449 20.7574 19.4663 20.3392 19.6782 19.5135C19.7358 19.3157 19.7513 19.1081 19.7238 18.9039C19.6963 18.6998 19.6264 18.5037 19.5185 18.3282C18.8536 17.2494 16.8024 16.8018 15.6954 16.5606C15.5346 16.5237 15.3912 16.4922 15.2727 16.4639ZM16.5764 11.374L15.7073 14.7571L15.9909 14.8288C16.7472 15.0521 17.5279 15.182 18.3158 15.2156C19.3805 15.2156 20.0215 14.8245 20.2192 14.0542C20.2748 13.8668 20.2905 13.6699 20.2654 13.4761C20.2404 13.2822 20.175 13.0958 20.0736 12.9287C19.5033 12.0063 17.8323 11.6467 16.935 11.4544C16.7992 11.4229 16.6786 11.3968 16.5797 11.3729L16.5764 11.374Z" fill="white"/>
</svg>
