<svg width="33" height="32" viewBox="0 0 33 32" fill="none" xmlns="http://www.w3.org/2000/svg">
<path d="M16.5 32C25.3366 32 32.5 24.8366 32.5 16C32.5 7.16344 25.3366 0 16.5 0C7.66344 0 0.5 7.16344 0.5 16C0.5 24.8366 7.66344 32 16.5 32Z" fill="black"/>
<path d="M22.8568 24.4706L18.6084 20.064C18.3119 19.7514 17.9548 19.5024 17.5589 19.3323C17.163 19.1621 16.7367 19.0744 16.3058 19.0744C15.8749 19.0744 15.4485 19.1621 15.0527 19.3323C14.6568 19.5024 14.2997 19.7514 14.0032 20.064L9.75473 24.4706H7.08838L12.6696 18.6805C13.138 18.187 13.7019 17.7941 14.327 17.5255C14.9522 17.257 15.6254 17.1185 16.3058 17.1185C16.9862 17.1185 17.6594 17.257 18.2845 17.5255C18.9097 17.7941 19.4736 18.187 19.942 18.6805L25.5232 24.4706H22.8568ZM12.6705 14.2249L7.1232 8.47058H9.78861L14.0032 12.8414C14.2998 13.1539 14.6569 13.4028 15.0528 13.5728C15.4486 13.7429 15.8749 13.8306 16.3058 13.8306C16.7366 13.8306 17.163 13.7429 17.5588 13.5728C17.9547 13.4028 18.3118 13.1539 18.6084 12.8414L22.823 8.47058H25.4893L19.942 14.2249C19.4737 14.7184 18.9098 15.1113 18.2848 15.3798C17.6597 15.6483 16.9866 15.7868 16.3063 15.7868C15.626 15.7868 14.9528 15.6483 14.3277 15.3798C13.7027 15.1113 13.1388 14.7184 12.6705 14.2249V14.2249Z" fill="white"/>
</svg>
